<svg xmlns="http://www.w3.org/2000/svg" width="220" height="19.1" viewBox="0 0 220 19.1"><g transform="translate(-508 -25)"><path d="M42.6-13.751h4.561v7.559a11.893,11.893,0,0,1-3.6,1.72,14.314,14.314,0,0,1-4.066.6A10.875,10.875,0,0,1,34.34-5.084a9.042,9.042,0,0,1-3.6-3.376,9.31,9.31,0,0,1-1.3-4.9,9.31,9.31,0,0,1,1.3-4.9,9,9,0,0,1,3.623-3.376,11.143,11.143,0,0,1,5.239-1.212,11.671,11.671,0,0,1,4.588.86,8.843,8.843,0,0,1,3.389,2.476L44.3-16.54a5.789,5.789,0,0,0-4.431-2.033,5.136,5.136,0,0,0-3.78,1.421,5.1,5.1,0,0,0-1.434,3.793,5.509,5.509,0,0,0,.652,2.7,4.673,4.673,0,0,0,1.825,1.851,5.35,5.35,0,0,0,2.685.665,6.594,6.594,0,0,0,2.789-.6Zm8.888-8.732h5.161V-4.237H51.492Zm18.22,0a10.407,10.407,0,0,1,4.3.821,6.378,6.378,0,0,1,2.815,2.346,6.432,6.432,0,0,1,.991,3.584,6.368,6.368,0,0,1-.991,3.571,6.409,6.409,0,0,1-2.815,2.333,10.407,10.407,0,0,1-4.3.821h-3.18v4.77H61.37V-22.483Zm42.982,13.4h-2.815v4.848h-5.161V-22.483h8.341a10.407,10.407,0,0,1,4.3.821,6.378,6.378,0,0,1,2.815,2.346,6.432,6.432,0,0,1,.99,3.584,6.355,6.355,0,0,1-.925,3.454,6.259,6.259,0,0,1-2.646,2.307l3.936,5.734H116Zm15.978-9.305h-5.6v-4.092h16.343v4.092h-5.578V-4.237h-5.161Zm18.872-.1v4.014H155.6v3.988h-8.054v6.256h-5.161V-22.483h14.31V-18.5ZM183.1-22.483h5.161V-8.329h8.706v4.092H183.1Zm16.943,0H205.2V-4.237H200.04Z" transform="translate(500.726 47.972)" fill="#fff"/><path d="M9.5,0A9.5,9.5,0,1,1,0,9.5,9.5,9.5,0,0,1,9.5,0Z" transform="translate(508 25)" fill="#fff"/><path d="M9.5,0A9.5,9.5,0,1,1,0,9.5,9.5,9.5,0,0,1,9.5,0Z" transform="translate(581 25)" fill="#fff"/><path d="M9.5,0A9.5,9.5,0,1,1,0,9.5,9.5,9.5,0,0,1,9.5,0Z" transform="translate(660 25)" fill="#fff"/><path d="M9.5,0A9.5,9.5,0,1,1,0,9.5,9.5,9.5,0,0,1,9.5,0Z" transform="translate(709 25)" fill="#fff"/></g></svg>