<svg xmlns="http://www.w3.org/2000/svg" width="1717.783" height="150.999" viewBox="0 0 1717.783 150.999"><g transform="translate(-502.203 -23.799)"><path d="M143.732,46.727l35.8,2.3V108.72A94.041,94.041,0,0,1,151.1,122.305a113.236,113.236,0,0,1-32.14,4.734q-22.663,0-40.793-9.571A71.437,71.437,0,0,1,49.741,90.813q-10.3-17.084-10.3-38.7t10.3-38.7A71.1,71.1,0,0,1,78.378-13.236q18.336-9.571,41.411-9.571,20.19,0,36.26,6.792A69.894,69.894,0,0,1,182.832,3.539L156.873,27q-14.628-16.055-35.024-16.055-18.542,0-29.873,11.218T80.645,52.116A43.473,43.473,0,0,0,85.8,73.42a36.917,36.917,0,0,0,14.422,14.614,42.317,42.317,0,0,0,21.22,5.249,52.156,52.156,0,0,0,22.044-4.734Zm70-69.535h40.793V127.039H213.735Zm144.01-.153q19.572,0,33.994,6.484T413.989,2.049c5.219,8.027,7.829,20.5,7.829,31.336s-2.61,20.24-7.829,28.2-12.636,14.1-22.251,18.422-20.946,6.484-33.994,6.484H332.61v40.549H291.877l-.059-150ZM683.854,85.873H661.6V126.76H620.811l.515-149.08h65.927q19.572,0,33.994,6.484T743.5,2.689c5.219,8.027,7.314,19.856,7.314,30.7q0,15.643-7.314,27.273a49.454,49.454,0,0,1-20.911,18.216l28.225,47.886H707.135ZM810.4,10.089H766.1V-22.227H895.278V10.089H851.189L850.936,126.6H810.144ZM959.307,8.842V43.265h63.661V74.758H959.307v52.124H918.515V-22.65h113.106V8.842ZM1240.322-22.65h40.792V94.566h68.812v32.316h-109.6Zm133.915,0h40.793V126.882h-40.793Z" transform="translate(633.462 47.259)" fill="none" stroke="#fff" stroke-width="1"/><g transform="translate(502.203 24.452)" fill="none"><path d="M74.923,0A74.855,74.855,0,1,1,0,74.855,74.889,74.889,0,0,1,74.923,0Z" stroke="none"/><path d="M 74.92316436767578 0.9999847412109375 C 64.94304656982422 0.9999847412109375 55.26198577880859 2.952606201171875 46.14892578125 6.803634643554688 C 41.76888275146484 8.654556274414062 37.54424285888672 10.945556640625 33.59236145019531 13.61297607421875 C 29.67778778076172 16.25518798828125 25.99668121337891 19.28965759277344 22.65126800537109 22.63203430175781 C 19.30586242675781 25.97438812255859 16.2686767578125 29.65215301513672 13.62408447265625 33.56314849853516 C 10.95429992675781 37.51136779785156 8.661285400390625 41.73210906982422 6.808700561523438 46.10809326171875 C 2.954345703125 55.21263122558594 1 64.88459014892578 1 74.85533142089844 C 1 84.8260498046875 2.954345703125 94.49801635742188 6.808700561523438 103.6025314331055 C 8.661285400390625 107.9785308837891 10.95429992675781 112.1992492675781 13.62408447265625 116.1474914550781 C 16.2686767578125 120.0584716796875 19.30586242675781 123.7362289428711 22.65126800537109 127.0785903930664 C 25.99668121337891 130.4209747314453 29.67780303955078 133.4554290771484 33.59236145019531 136.0976715087891 C 37.54424285888672 138.7650909423828 41.76888275146484 141.0560913085938 46.14892578125 142.9070129394531 C 55.26198577880859 146.7580261230469 64.94304656982422 148.7106475830078 74.92316436767578 148.7106475830078 C 84.90328216552734 148.7106475830078 94.58432006835938 146.7580261230469 103.6973876953125 142.9070129394531 C 108.0774459838867 141.0560913085938 112.3020858764648 138.7650909423828 116.2539443969727 136.0976715087891 C 120.1685256958008 133.4554290771484 123.8496246337891 130.4209747314453 127.1950454711914 127.0785903930664 C 130.5404357910156 123.7362289428711 133.5776214599609 120.0584716796875 136.2222290039062 116.1474914550781 C 138.8920288085938 112.1992492675781 141.1850433349609 107.9785308837891 143.03759765625 103.6025314331055 C 146.8919830322266 94.49801635742188 148.8463287353516 84.8260498046875 148.8463287353516 74.85533142089844 C 148.8463287353516 64.88459014892578 146.8919830322266 55.21263122558594 143.03759765625 46.10809326171875 C 141.1850433349609 41.73210906982422 138.8920288085938 37.51136779785156 136.2222290039062 33.56314849853516 C 133.5776214599609 29.65215301513672 130.5404357910156 25.97438812255859 127.1950454711914 22.63203430175781 C 123.8496398925781 19.28965759277344 120.1685256958008 16.25518798828125 116.2539443969727 13.61297607421875 C 112.3020858764648 10.945556640625 108.0774459838867 8.654556274414062 103.6973876953125 6.803634643554688 C 94.58432006835938 2.952606201171875 84.90328216552734 0.9999847412109375 74.92316436767578 0.9999847412109375 M 74.92316436767578 -1.52587890625e-05 C 116.3020629882812 -1.52587890625e-05 149.8463287353516 33.51385498046875 149.8463287353516 74.85533142089844 C 149.8463287353516 116.1967468261719 116.3020629882812 149.7106475830078 74.92316436767578 149.7106475830078 C 33.54422760009766 149.7106475830078 0 116.1967468261719 0 74.85533142089844 C 0 33.51385498046875 33.54422760009766 -1.52587890625e-05 74.92316436767578 -1.52587890625e-05 Z" stroke="none" fill="#fff"/></g><g transform="translate(1078.43 24.452)" fill="none"><path d="M74.923,0A74.855,74.855,0,1,1,0,74.855,74.889,74.889,0,0,1,74.923,0Z" stroke="none"/><path d="M 74.92316436767578 0.9999847412109375 C 64.94304656982422 0.9999847412109375 55.26198577880859 2.952606201171875 46.14892578125 6.803634643554688 C 41.76888275146484 8.654556274414062 37.54424285888672 10.945556640625 33.59236145019531 13.61297607421875 C 29.67778778076172 16.25518798828125 25.99668121337891 19.28965759277344 22.65126800537109 22.63203430175781 C 19.30586242675781 25.97438812255859 16.2686767578125 29.65215301513672 13.62408447265625 33.56314849853516 C 10.95429992675781 37.51136779785156 8.661285400390625 41.73210906982422 6.808700561523438 46.10809326171875 C 2.954345703125 55.21263122558594 1 64.88459014892578 1 74.85533142089844 C 1 84.8260498046875 2.954345703125 94.49801635742188 6.808700561523438 103.6025314331055 C 8.661285400390625 107.9785308837891 10.95429992675781 112.1992492675781 13.62408447265625 116.1474914550781 C 16.2686767578125 120.0584716796875 19.30586242675781 123.7362289428711 22.65126800537109 127.0785903930664 C 25.99668121337891 130.4209747314453 29.67780303955078 133.4554290771484 33.59236145019531 136.0976715087891 C 37.54424285888672 138.7650909423828 41.76888275146484 141.0560913085938 46.14892578125 142.9070129394531 C 55.26198577880859 146.7580261230469 64.94304656982422 148.7106475830078 74.92316436767578 148.7106475830078 C 84.90328216552734 148.7106475830078 94.58432006835938 146.7580261230469 103.6973876953125 142.9070129394531 C 108.0774459838867 141.0560913085938 112.3020858764648 138.7650909423828 116.2539443969727 136.0976715087891 C 120.1685256958008 133.4554290771484 123.8496246337891 130.4209747314453 127.1950454711914 127.0785903930664 C 130.5404357910156 123.7362289428711 133.5776214599609 120.0584716796875 136.2222290039062 116.1474914550781 C 138.8920288085938 112.1992492675781 141.1850433349609 107.9785308837891 143.03759765625 103.6025314331055 C 146.8919830322266 94.49801635742188 148.8463287353516 84.8260498046875 148.8463287353516 74.85533142089844 C 148.8463287353516 64.88459014892578 146.8919830322266 55.21263122558594 143.03759765625 46.10809326171875 C 141.1850433349609 41.73210906982422 138.8920288085938 37.51136779785156 136.2222290039062 33.56314849853516 C 133.5776214599609 29.65215301513672 130.5404357910156 25.97438812255859 127.1950454711914 22.63203430175781 C 123.8496398925781 19.28965759277344 120.1685256958008 16.25518798828125 116.2539443969727 13.61297607421875 C 112.3020858764648 10.945556640625 108.0774459838867 8.654556274414062 103.6973876953125 6.803634643554688 C 94.58432006835938 2.952606201171875 84.90328216552734 0.9999847412109375 74.92316436767578 0.9999847412109375 M 74.92316436767578 -1.52587890625e-05 C 116.3020629882812 -1.52587890625e-05 149.8463287353516 33.51385498046875 149.8463287353516 74.85533142089844 C 149.8463287353516 116.1967468261719 116.3020629882812 149.7106475830078 74.92316436767578 149.7106475830078 C 33.54422760009766 149.7106475830078 0 116.1967468261719 0 74.85533142089844 C 0 33.51385498046875 33.54422760009766 -1.52587890625e-05 74.92316436767578 -1.52587890625e-05 Z" stroke="none" fill="#fff"/></g><g transform="translate(1688.713 24.452)" fill="none"><path d="M74.923,0A74.855,74.855,0,1,1,0,74.855,74.889,74.889,0,0,1,74.923,0Z" stroke="none"/><path d="M 74.92316436767578 0.9999847412109375 C 64.94304656982422 0.9999847412109375 55.26198577880859 2.952606201171875 46.14892578125 6.803634643554688 C 41.76888275146484 8.654556274414062 37.54424285888672 10.945556640625 33.59236145019531 13.61297607421875 C 29.67778778076172 16.25518798828125 25.99668121337891 19.28965759277344 22.65126800537109 22.63203430175781 C 19.30586242675781 25.97438812255859 16.2686767578125 29.65215301513672 13.62408447265625 33.56314849853516 C 10.95429992675781 37.51136779785156 8.661285400390625 41.73210906982422 6.808700561523438 46.10809326171875 C 2.954345703125 55.21263122558594 1 64.88459014892578 1 74.85533142089844 C 1 84.8260498046875 2.954345703125 94.49801635742188 6.808700561523438 103.6025314331055 C 8.661285400390625 107.9785308837891 10.95429992675781 112.1992492675781 13.62408447265625 116.1474914550781 C 16.2686767578125 120.0584716796875 19.30586242675781 123.7362289428711 22.65126800537109 127.0785903930664 C 25.99668121337891 130.4209747314453 29.67780303955078 133.4554290771484 33.59236145019531 136.0976715087891 C 37.54424285888672 138.7650909423828 41.76888275146484 141.0560913085938 46.14892578125 142.9070129394531 C 55.26198577880859 146.7580261230469 64.94304656982422 148.7106475830078 74.92316436767578 148.7106475830078 C 84.90328216552734 148.7106475830078 94.58432006835938 146.7580261230469 103.6973876953125 142.9070129394531 C 108.0774459838867 141.0560913085938 112.3020858764648 138.7650909423828 116.2539443969727 136.0976715087891 C 120.1685256958008 133.4554290771484 123.8496246337891 130.4209747314453 127.1950454711914 127.0785903930664 C 130.5404357910156 123.7362289428711 133.5776214599609 120.0584716796875 136.2222290039062 116.1474914550781 C 138.8920288085938 112.1992492675781 141.1850433349609 107.9785308837891 143.03759765625 103.6025314331055 C 146.8919830322266 94.49801635742188 148.8463287353516 84.8260498046875 148.8463287353516 74.85533142089844 C 148.8463287353516 64.88459014892578 146.8919830322266 55.21263122558594 143.03759765625 46.10809326171875 C 141.1850433349609 41.73210906982422 138.8920288085938 37.51136779785156 136.2222290039062 33.56314849853516 C 133.5776214599609 29.65215301513672 130.5404357910156 25.97438812255859 127.1950454711914 22.63203430175781 C 123.8496398925781 19.28965759277344 120.1685256958008 16.25518798828125 116.2539443969727 13.61297607421875 C 112.3020858764648 10.945556640625 108.0774459838867 8.654556274414062 103.6973876953125 6.803634643554688 C 94.58432006835938 2.952606201171875 84.90328216552734 0.9999847412109375 74.92316436767578 0.9999847412109375 M 74.92316436767578 -1.52587890625e-05 C 116.3020629882812 -1.52587890625e-05 149.8463287353516 33.51385498046875 149.8463287353516 74.85533142089844 C 149.8463287353516 116.1967468261719 116.3020629882812 149.7106475830078 74.92316436767578 149.7106475830078 C 33.54422760009766 149.7106475830078 0 116.1967468261719 0 74.85533142089844 C 0 33.51385498046875 33.54422760009766 -1.52587890625e-05 74.92316436767578 -1.52587890625e-05 Z" stroke="none" fill="#fff"/></g><g transform="translate(2070.139 24.452)" fill="none"><path d="M74.923,0A74.855,74.855,0,1,1,0,74.855,74.889,74.889,0,0,1,74.923,0Z" stroke="none"/><path d="M 74.92316436767578 0.9999847412109375 C 64.94304656982422 0.9999847412109375 55.26198577880859 2.952606201171875 46.14892578125 6.803634643554688 C 41.76888275146484 8.654556274414062 37.54424285888672 10.945556640625 33.59236145019531 13.61297607421875 C 29.67778778076172 16.25518798828125 25.99668121337891 19.28965759277344 22.65126800537109 22.63203430175781 C 19.30586242675781 25.97438812255859 16.2686767578125 29.65215301513672 13.62408447265625 33.56314849853516 C 10.95429992675781 37.51136779785156 8.661285400390625 41.73210906982422 6.808700561523438 46.10809326171875 C 2.954345703125 55.21263122558594 1 64.88459014892578 1 74.85533142089844 C 1 84.8260498046875 2.954345703125 94.49801635742188 6.808700561523438 103.6025314331055 C 8.661285400390625 107.9785308837891 10.95429992675781 112.1992492675781 13.62408447265625 116.1474914550781 C 16.2686767578125 120.0584716796875 19.30586242675781 123.7362289428711 22.65126800537109 127.0785903930664 C 25.99668121337891 130.4209747314453 29.67780303955078 133.4554290771484 33.59236145019531 136.0976715087891 C 37.54424285888672 138.7650909423828 41.76888275146484 141.0560913085938 46.14892578125 142.9070129394531 C 55.26198577880859 146.7580261230469 64.94304656982422 148.7106475830078 74.92316436767578 148.7106475830078 C 84.90328216552734 148.7106475830078 94.58432006835938 146.7580261230469 103.6973876953125 142.9070129394531 C 108.0774459838867 141.0560913085938 112.3020858764648 138.7650909423828 116.2539443969727 136.0976715087891 C 120.1685256958008 133.4554290771484 123.8496246337891 130.4209747314453 127.1950454711914 127.0785903930664 C 130.5404357910156 123.7362289428711 133.5776214599609 120.0584716796875 136.2222290039062 116.1474914550781 C 138.8920288085938 112.1992492675781 141.1850433349609 107.9785308837891 143.03759765625 103.6025314331055 C 146.8919830322266 94.49801635742188 148.8463287353516 84.8260498046875 148.8463287353516 74.85533142089844 C 148.8463287353516 64.88459014892578 146.8919830322266 55.21263122558594 143.03759765625 46.10809326171875 C 141.1850433349609 41.73210906982422 138.8920288085938 37.51136779785156 136.2222290039062 33.56314849853516 C 133.5776214599609 29.65215301513672 130.5404357910156 25.97438812255859 127.1950454711914 22.63203430175781 C 123.8496398925781 19.28965759277344 120.1685256958008 16.25518798828125 116.2539443969727 13.61297607421875 C 112.3020858764648 10.945556640625 108.0774459838867 8.654556274414062 103.6973876953125 6.803634643554688 C 94.58432006835938 2.952606201171875 84.90328216552734 0.9999847412109375 74.92316436767578 0.9999847412109375 M 74.92316436767578 -1.52587890625e-05 C 116.3020629882812 -1.52587890625e-05 149.8463287353516 33.51385498046875 149.8463287353516 74.85533142089844 C 149.8463287353516 116.1967468261719 116.3020629882812 149.7106475830078 74.92316436767578 149.7106475830078 C 33.54422760009766 149.7106475830078 0 116.1967468261719 0 74.85533142089844 C 0 33.51385498046875 33.54422760009766 -1.52587890625e-05 74.92316436767578 -1.52587890625e-05 Z" stroke="none" fill="#fff"/></g></g></svg>